#!OML:ASF X:\für Bonn\!DataBase\2005_08_10_Bjorn_Final\c3d\bjorn.ASF
:FULLY-SPECIFIED
:DEGREES
250
root 10.5774 12.4958 0.0585875 -389.255 89.8981 -391.207
lowerback 38.1175 -0.505584 6.40447
upperback 20.1809 4.5741 1.62592
thorax 3.83701 3.97914 -2.82343
lowerneck -5.99582 -6.94212 4.26382
upperneck 6.1809 -9.5148 -1.49047
head 2.72862 -4.66658 -1.58579
rclavicle -7.95139e-015 2.38542e-015
rhumerus 14.5848 -6.49747 -71.8713
rradius 21.892
rwrist 3.83261
rhand -32.7629 21.3127
rfingers 7.12502
rthumb -5.98535 -8.58272
lclavicle -7.95139e-015 2.38542e-015
lhumerus -8.9981 -39.8206 76.9462
lradius 41.3928
lwrist -7.80889
lhand -26.7603 -11.2277
lfingers 7.12502
lthumb -0.188563 18.752
rfemur -58.6291 -9.60893 1.37609
rtibia 120.757
rfoot -24.4974 35.4162
rtoes -27.4734
lfemur -74.554 14.1519 -22.0988
ltibia 120
lfoot -24.9615 -5.3383
ltoes -29.4571
251
root 10.5956 12.6462 0.0563679 -442.209 89.9054 -444.366
lowerback 37.5985 -0.426911 6.37408
upperback 20.1077 4.57995 1.60883
thorax 3.91454 3.96607 -2.81657
lowerneck -6.34293 -6.85765 4.18821
upperneck 6.49285 -9.41104 -1.50271
head 2.90598 -4.61069 -1.60333
rclavicle -4.77083e-014 -3.65764e-014
rhumerus 14.0242 -6.2134 -71.9794
rradius 21.8907
rwrist 3.76722
rhand -32.261 20.9846
rfingers 7.12502
rthumb -5.50078 -8.92401
lclavicle -4.77083e-014 -3.65764e-014
lhumerus -9.30594 -40.0233 77.0793
lradius 41.0705
lwrist -8.05435
lhand -26.6196 -11.0866
lfingers 7.12502
lthumb -0.0526483 18.8931
rfemur -57.9676 -8.78263 1.87028
rtibia 119.487
rfoot -24.7781 34.5495
rtoes -27.6368
lfemur -73.7319 13.67 -21.9911
ltibia 118.756
lfoot -24.9027 -5.12694
ltoes -29.2562
252
root 10.6154 12.8003 0.053534 -471.106 89.8527 -473.456
lowerback 37.056 -0.3487 6.33424
upperback 20.0439 4.5816 1.58366
thorax 4.01276 3.95182 -2.81024
lowerneck -6.87885 -6.77849 4.10096
upperneck 6.94561 -9.32311 -1.49705
head 3.17008 -4.55934 -1.6283
rclavicle 5.08889e-014 6.52014e-014
rhumerus 13.4931 -6.02074 -72.1557
rradius 21.8672
rwrist 3.8143
rhand -31.6654 20.6994
rfingers 7.12502
rthumb -4.92564 -9.22338
lclavicle 5.08889e-014 6.52014e-014
lhumerus -9.59864 -40.2082 77.2022
lradius 40.7525
lwrist -8.25612
lhand -26.4182 -10.9004
lfingers 7.12502
lthumb 0.141814 19.0793
rfemur -57.2736 -8.01243 2.33618
rtibia 118.164
rfoot -24.9707 33.7701
rtoes -27.6641
lfemur -72.8933 13.214 -21.8919
ltibia 117.487
lfoot -24.8199 -4.93689
ltoes -28.9686
253
root 10.635 12.9524 0.0510167 -487.627 89.7696 -490.181
lowerback 36.4919 -0.278273 6.28626
upperback 19.9652 4.56818 1.5796
thorax 4.10086 3.92565 -2.77341
lowerneck -7.34194 -6.69082 3.95836
upperneck 7.3219 -9.21387 -1.48769
head 3.40007 -4.50035 -1.635
rclavicle -3.65764e-014 -2.38542e-015
rhumerus 12.9272 -5.67476 -72.2674
rradius 21.8489
rwrist 3.78458
rhand -31.1325 20.4628
rfingers 7.12502
rthumb -4.41105 -9.47124
lclavicle -3.65764e-014 -2.38542e-015
lhumerus -9.88424 -40.3289 77.3855
lradius 40.3744
lwrist -8.50174
lhand -26.1421 -10.779
lfingers 7.12502
lthumb 0.408536 19.2004
rfemur -56.5742 -7.3096 2.77555
rtibia 116.826
rfoot -25.0563 33.0852
rtoes -27.5422
lfemur -72.0774 12.7642 -21.8069
ltibia 116.21
lfoot -24.7505 -4.69332
ltoes -28.9426
254
root 10.6559 13.1059 0.0475403 -493.705 89.6841 -496.431
lowerback 35.9324 -0.209364 6.27427
upperback 19.903 4.56834 1.55662
thorax 4.21495 3.91398 -2.77669
lowerneck -7.83938 -6.60444 3.90266
upperneck 7.6771 -9.1141 -1.50951
head 3.62579 -4.44574 -1.66722
rclavicle -5.56597e-014 -2.62396e-014
rhumerus 12.3553 -5.48187 -72.4308
rradius 21.8448
rwrist 3.86315
rhand -30.5122 20.1644
rfingers 7.12502
rthumb -3.81208 -9.7813
lclavicle -5.56597e-014 -2.62396e-014
lhumerus -10.0768 -40.5217 77.5087
lradius 39.9655
lwrist -8.6841
lhand -25.8802 -10.6096
lfingers 7.12502
lthumb 0.661405 19.3691
rfemur -55.8252 -6.65352 3.188
rtibia 115.457
rfoot -25.1728 32.4194
rtoes -27.4512
lfemur -71.2146 12.3487 -21.7324
ltibia 114.913
lfoot -24.6925 -4.39077
ltoes -28.9809
255
root 10.6789 13.261 0.0448314 -502.848 89.6149 -505.747
lowerback 35.3715 -0.12694 6.20265
upperback 19.8131 4.56411 1.53743
thorax 4.29651 3.89092 -2.74598
lowerneck -8.22955 -6.5271 3.79322
upperneck 7.97215 -9.0187 -1.48207
head 3.81608 -4.39387 -1.66634
rclavicle 2.38542e-014 1.35174e-014
rhumerus 11.7348 -5.29532 -72.6124
rradius 21.8284
rwrist 3.94656
rhand -29.8497 19.856
rfingers 7.12502
rthumb -3.17232 -10.1001
lclavicle 2.38542e-014 1.35174e-014
lhumerus -10.3455 -40.5585 77.7106
lradius 39.5603
lwrist -9.0151
lhand -25.4911 -10.5334
lfingers 7.12502
lthumb 1.03724 19.4438
rfemur -55.0518 -6.06276 3.52558
rtibia 114.061
rfoot -25.2649 31.811
rtoes -27.3697
lfemur -70.3358 11.9418 -21.6988
ltibia 113.586
lfoot -24.6347 -4.1529
ltoes -28.8871
256
root 10.7031 13.4163 0.0417243 -511.894 89.5868 -514.958
lowerback 34.7651 -0.0209148 6.09912
upperback 19.738 4.57749 1.50854
thorax 4.41335 3.87603 -2.7102
lowerneck -8.57431 -6.46387 3.76893
upperneck 8.26365 -8.93954 -1.55587
head 3.98819 -4.35224 -1.711
rclavicle 1.1291e-013 5.1684e-014
rhumerus 11.1043 -5.19341 -72.8177
rradius 21.8319
rwrist 4.09796
rhand -29.1484 19.4964
rfingers 7.12502
rthumb -2.49498 -10.4688
lclavicle 1.1291e-013 5.1684e-014
lhumerus -10.5866 -40.7023 77.8866
lradius 39.1814
lwrist -9.23816
lhand -25.0772 -10.358
lfingers 7.12502
lthumb 1.43701 19.6169
rfemur -54.2648 -5.49655 3.78461
rtibia 112.632
rfoot -25.2468 31.3296
rtoes -26.9395
lfemur -69.4203 11.5717 -21.7162
ltibia 112.231
lfoot -24.5957 -3.89528
ltoes -28.8029
257
root 10.7286 13.5727 0.0384994 -517.915 89.5211 -521.132
lowerback 34.0502 0.0593833 5.99479
upperback 19.7247 4.55957 1.49085
thorax 4.63803 3.85164 -2.64486
lowerneck -8.87267 -6.36857 3.70878
upperneck 8.51671 -8.81531 -1.58053
head 4.1441 -4.28813 -1.72711
rclavicle 4.6118e-014 2.3059e-014
rhumerus 10.5594 -5.0187 -73.0274
rradius 21.8393
rwrist 4.19962
rhand -28.5003 19.1402
rfingers 7.12502
rthumb -1.86908 -10.8313
lclavicle 4.6118e-014 2.3059e-014
lhumerus -10.768 -40.7149 78.0484
lradius 38.7793
lwrist -9.443
lhand -24.6817 -10.2428
lfingers 7.12502
lthumb 1.819 19.7292
rfemur -53.4324 -4.99087 4.06755
rtibia 111.177
rfoot -25.4114 30.7501
rtoes -27.1311
lfemur -68.4902 11.225 -21.7093
ltibia 110.855
lfoot -24.5244 -3.72617
ltoes -28.5132
258
root 10.7566 13.7315 0.0351756 -523.93 89.4919 -527.31
lowerback 33.2726 0.165824 5.88666
upperback 19.7244 4.56946 1.45148
thorax 4.90909 3.84348 -2.60273
lowerneck -9.1602 -6.29267 3.70928
upperneck 8.78565 -8.72239 -1.6194
head 4.30015 -4.23788 -1.75964
rclavicle -5.08889e-014 -2.3059e-014
rhumerus 10.0126 -5.05379 -73.3166
rradius 21.7993
rwrist 4.41243
rhand -27.9019 18.9406
rfingers 7.12502
rthumb -1.29112 -11.0352
lclavicle -5.08889e-014 -2.3059e-014
lhumerus -10.8844 -40.8127 78.1533
lradius 38.3857
lwrist -9.54598
lhand -24.2759 -10.115
lfingers 7.12502
lthumb 2.21089 19.8533
rfemur -52.6119 -4.47948 4.30269
rtibia 109.685
rfoot -25.5069 30.2245
rtoes -27.2345
lfemur -67.5413 10.9253 -21.7363
ltibia 109.447
lfoot -24.4759 -3.50384
ltoes -28.4863
259
root 10.786 13.8911 0.0316131 -526.84 89.4608 -530.362
lowerback 32.4843 0.271927 5.76233
upperback 19.7057 4.57354 1.43375
thorax 5.16653 3.82658 -2.52783
lowerneck -9.29595 -6.20806 3.72562
upperneck 8.99921 -8.60609 -1.71754
head 4.40361 -4.17983 -1.80341
rclavicle 6.99722e-014 -4.77083e-015
rhumerus 9.38819 -4.90869 -73.531
rradius 21.8409
rwrist 4.55163
rhand -27.361 18.6698
rfingers 7.12502
rthumb -0.768752 -11.3086
lclavicle 6.99722e-014 -4.77083e-015
lhumerus -11.0885 -40.7673 78.3626
lradius 37.9433
lwrist -9.758
lhand -23.9159 -10.0665
lfingers 7.12502
lthumb 2.55856 19.8979
rfemur -51.744 -3.9785 4.54668
rtibia 108.159
rfoot -25.6523 29.7063
rtoes -27.4175
lfemur -66.5657 10.6649 -21.735
ltibia 108.016
lfoot -24.411 -3.36234
ltoes -28.1967
